<svg xmlns="http://www.w3.org/2000/svg" viewBox="0 0 16 16" width="128" height="128" style="image-rendering: pixelated">
  <!-- 8-Bit Hero - Cyan classic platformer hero -->
  <rect width="16" height="16" fill="#1a1a2e"/>
  <!-- Hair -->
  <rect x="5" y="2" width="6" height="2" fill="#8b5a2b"/>
  <!-- Head -->
  <rect x="5" y="4" width="6" height="4" fill="#eef5db"/>
  <!-- Eyes -->
  <rect x="6" y="5" width="1" height="1" fill="#1a1a2e"/>
  <rect x="9" y="5" width="1" height="1" fill="#1a1a2e"/>
  <!-- Smile -->
  <rect x="7" y="6" width="2" height="1" fill="#ff6b9d"/>
  <!-- Cape -->
  <rect x="3" y="5" width="2" height="7" fill="#ffd93d"/>
  <rect x="2" y="7" width="1" height="5" fill="#ffd93d"/>
  <!-- Body -->
  <rect x="5" y="8" width="6" height="4" fill="#3bceac"/>
  <rect x="6" y="9" width="4" height="2" fill="#2aa391"/>
  <!-- Belt -->
  <rect x="5" y="11" width="6" height="1" fill="#ffd93d"/>
  <!-- Arms -->
  <rect x="11" y="8" width="2" height="3" fill="#eef5db"/>
  <!-- Raised fist -->
  <rect x="12" y="6" width="2" height="2" fill="#eef5db"/>
  <!-- Legs -->
  <rect x="5" y="12" width="2" height="2" fill="#3bceac"/>
  <rect x="9" y="12" width="2" height="2" fill="#3bceac"/>
  <!-- Boots -->
  <rect x="5" y="14" width="2" height="1" fill="#8b5a2b"/>
  <rect x="9" y="14" width="2" height="1" fill="#8b5a2b"/>
</svg>
