<svg xmlns="http://www.w3.org/2000/svg" viewBox="0 0 16 16" width="128" height="128" style="image-rendering: pixelated">
  <!-- Cyber Fox - Pink/orange hacker fox -->
  <rect width="16" height="16" fill="#1a1a2e"/>
  <!-- Ears -->
  <rect x="3" y="1" width="2" height="3" fill="#ff6b9d"/>
  <rect x="11" y="1" width="2" height="3" fill="#ff6b9d"/>
  <rect x="4" y="2" width="1" height="2" fill="#ffd93d"/>
  <rect x="11" y="2" width="1" height="2" fill="#ffd93d"/>
  <!-- Head -->
  <rect x="4" y="4" width="8" height="5" fill="#ff6b9d"/>
  <!-- White muzzle -->
  <rect x="6" y="6" width="4" height="3" fill="#eef5db"/>
  <!-- Cyber eye -->
  <rect x="5" y="5" width="2" height="2" fill="#3bceac"/>
  <rect x="5" y="5" width="1" height="1" fill="#1a1a2e"/>
  <!-- Normal eye -->
  <rect x="9" y="5" width="2" height="2" fill="#ffd93d"/>
  <rect x="10" y="5" width="1" height="1" fill="#1a1a2e"/>
  <!-- Nose -->
  <rect x="7" y="7" width="2" height="1" fill="#1a1a2e"/>
  <!-- Body -->
  <rect x="5" y="9" width="6" height="4" fill="#ff6b9d"/>
  <!-- Cyber circuits on body -->
  <rect x="6" y="10" width="1" height="2" fill="#3bceac"/>
  <rect x="9" y="10" width="1" height="2" fill="#3bceac"/>
  <rect x="6" y="11" width="4" height="1" fill="#3bceac"/>
  <!-- Arms -->
  <rect x="3" y="9" width="2" height="3" fill="#ff6b9d"/>
  <rect x="11" y="9" width="2" height="3" fill="#ff6b9d"/>
  <!-- Tail -->
  <rect x="11" y="11" width="2" height="1" fill="#ff6b9d"/>
  <rect x="13" y="10" width="2" height="2" fill="#ff6b9d"/>
  <rect x="14" y="9" width="1" height="1" fill="#eef5db"/>
  <!-- Legs -->
  <rect x="5" y="13" width="2" height="2" fill="#ff6b9d"/>
  <rect x="9" y="13" width="2" height="2" fill="#ff6b9d"/>
</svg>
