<svg xmlns="http://www.w3.org/2000/svg" viewBox="0 0 16 16" width="128" height="128" style="image-rendering: pixelated">
  <!-- Dragon Coder - Green dragon breathing code -->
  <rect width="16" height="16" fill="#1a1a2e"/>
  <!-- Head -->
  <rect x="3" y="3" width="6" height="5" fill="#0ead69"/>
  <rect x="2" y="4" width="1" height="3" fill="#0ead69"/>
  <!-- Horns -->
  <rect x="3" y="2" width="1" height="1" fill="#ffd93d"/>
  <rect x="7" y="2" width="1" height="1" fill="#ffd93d"/>
  <!-- Eye -->
  <rect x="4" y="4" width="2" height="2" fill="#ffd93d"/>
  <rect x="5" y="4" width="1" height="1" fill="#1a1a2e"/>
  <!-- Nostril -->
  <rect x="2" y="6" width="1" height="1" fill="#0a8f55"/>
  <!-- Code breath -->
  <rect x="1" y="5" width="1" height="1" fill="#ffd93d"/>
  <rect x="0" y="4" width="1" height="1" fill="#ff6b9d"/>
  <rect x="0" y="6" width="1" height="1" fill="#3bceac"/>
  <!-- Body -->
  <rect x="5" y="8" width="6" height="4" fill="#0ead69"/>
  <rect x="6" y="9" width="4" height="2" fill="#ffd93d"/>
  <!-- Wings -->
  <rect x="10" y="5" width="3" height="1" fill="#0ead69"/>
  <rect x="11" y="6" width="3" height="1" fill="#0ead69"/>
  <rect x="12" y="7" width="2" height="1" fill="#0ead69"/>
  <!-- Spiky back -->
  <rect x="8" y="7" width="1" height="1" fill="#0a8f55"/>
  <rect x="9" y="6" width="1" height="1" fill="#0a8f55"/>
  <rect x="10" y="7" width="1" height="1" fill="#0a8f55"/>
  <!-- Legs -->
  <rect x="5" y="12" width="2" height="2" fill="#0ead69"/>
  <rect x="9" y="12" width="2" height="2" fill="#0ead69"/>
  <!-- Tail -->
  <rect x="11" y="10" width="2" height="1" fill="#0ead69"/>
  <rect x="13" y="9" width="2" height="1" fill="#0ead69"/>
  <rect x="14" y="8" width="1" height="1" fill="#ffd93d"/>
</svg>
