<svg xmlns="http://www.w3.org/2000/svg" viewBox="0 0 16 16" width="128" height="128" style="image-rendering: pixelated">
  <!-- Keyboard Cat - Yellow cool cat -->
  <rect width="16" height="16" fill="#1a1a2e"/>
  <!-- Ears -->
  <rect x="4" y="2" width="2" height="2" fill="#ffd93d"/>
  <rect x="10" y="2" width="2" height="2" fill="#ffd93d"/>
  <rect x="5" y="3" width="1" height="1" fill="#ff6b9d"/>
  <rect x="10" y="3" width="1" height="1" fill="#ff6b9d"/>
  <!-- Head -->
  <rect x="4" y="4" width="8" height="5" fill="#ffd93d"/>
  <!-- Sunglasses -->
  <rect x="4" y="5" width="3" height="2" fill="#1a1a2e"/>
  <rect x="9" y="5" width="3" height="2" fill="#1a1a2e"/>
  <rect x="7" y="5" width="2" height="1" fill="#1a1a2e"/>
  <!-- Nose -->
  <rect x="7" y="7" width="2" height="1" fill="#ff6b9d"/>
  <!-- Headphones -->
  <rect x="3" y="4" width="1" height="4" fill="#3bceac"/>
  <rect x="12" y="4" width="1" height="4" fill="#3bceac"/>
  <rect x="3" y="3" width="10" height="1" fill="#3bceac"/>
  <!-- Body -->
  <rect x="5" y="9" width="6" height="4" fill="#ffd93d"/>
  <!-- Paws on keyboard -->
  <rect x="4" y="12" width="8" height="2" fill="#4a4a6e"/>
  <rect x="5" y="12" width="2" height="1" fill="#ffd93d"/>
  <rect x="9" y="12" width="2" height="1" fill="#ffd93d"/>
  <!-- Keyboard keys -->
  <rect x="5" y="13" width="1" height="1" fill="#eef5db"/>
  <rect x="7" y="13" width="1" height="1" fill="#eef5db"/>
  <rect x="9" y="13" width="1" height="1" fill="#eef5db"/>
</svg>
