<svg xmlns="http://www.w3.org/2000/svg" viewBox="0 0 16 16" width="128" height="128" style="image-rendering: pixelated">
  <!-- Robo Typer - Green friendly robot -->
  <rect width="16" height="16" fill="#1a1a2e"/>
  <!-- Antenna -->
  <rect x="7" y="1" width="2" height="1" fill="#4a4a6e"/>
  <rect x="7" y="0" width="2" height="1" fill="#ffd93d"/>
  <!-- Head/Screen -->
  <rect x="4" y="2" width="8" height="5" fill="#0ead69"/>
  <rect x="5" y="3" width="6" height="3" fill="#1a1a2e"/>
  <!-- Face :) -->
  <rect x="6" y="4" width="1" height="1" fill="#0ead69"/>
  <rect x="9" y="4" width="1" height="1" fill="#0ead69"/>
  <rect x="6" y="5" width="1" height="1" fill="#0ead69"/>
  <rect x="7" y="5" width="2" height="1" fill="#0ead69"/>
  <rect x="9" y="5" width="1" height="1" fill="#0ead69"/>
  <!-- Body -->
  <rect x="5" y="7" width="6" height="5" fill="#0ead69"/>
  <rect x="6" y="8" width="4" height="3" fill="#0a8f55"/>
  <!-- Keyboard on chest -->
  <rect x="6" y="9" width="4" height="2" fill="#ffd93d"/>
  <rect x="7" y="9" width="1" height="1" fill="#1a1a2e"/>
  <rect x="9" y="9" width="1" height="1" fill="#1a1a2e"/>
  <rect x="6" y="10" width="1" height="1" fill="#1a1a2e"/>
  <rect x="8" y="10" width="1" height="1" fill="#1a1a2e"/>
  <!-- Arms -->
  <rect x="3" y="7" width="2" height="4" fill="#0ead69"/>
  <rect x="11" y="7" width="2" height="4" fill="#0ead69"/>
  <!-- Legs -->
  <rect x="5" y="12" width="2" height="2" fill="#4a4a6e"/>
  <rect x="9" y="12" width="2" height="2" fill="#4a4a6e"/>
</svg>
