<svg xmlns="http://www.w3.org/2000/svg" viewBox="0 0 16 16" width="128" height="128" style="image-rendering: pixelated">
  <!-- Star Captain - Yellow/gold commander -->
  <rect width="16" height="16" fill="#1a1a2e"/>
  <!-- Stars in background -->
  <rect x="1" y="2" width="1" height="1" fill="#ffd93d"/>
  <rect x="14" y="4" width="1" height="1" fill="#ffd93d"/>
  <rect x="2" y="12" width="1" height="1" fill="#ffd93d"/>
  <!-- Captain hat -->
  <rect x="4" y="2" width="8" height="2" fill="#1a1a2e"/>
  <rect x="5" y="1" width="6" height="1" fill="#1a1a2e"/>
  <rect x="6" y="2" width="4" height="1" fill="#ffd93d"/>
  <!-- Star emblem on hat -->
  <rect x="7" y="2" width="2" height="1" fill="#eef5db"/>
  <!-- Visor -->
  <rect x="4" y="4" width="8" height="1" fill="#ffd93d"/>
  <!-- Face -->
  <rect x="5" y="5" width="6" height="3" fill="#eef5db"/>
  <!-- Eyes -->
  <rect x="6" y="5" width="1" height="1" fill="#3bceac"/>
  <rect x="9" y="5" width="1" height="1" fill="#3bceac"/>
  <!-- Determined expression -->
  <rect x="7" y="7" width="2" height="1" fill="#ff6b9d"/>
  <!-- Uniform -->
  <rect x="4" y="8" width="8" height="5" fill="#ffd93d"/>
  <rect x="5" y="9" width="6" height="3" fill="#3bceac"/>
  <!-- Epaulettes -->
  <rect x="3" y="8" width="1" height="2" fill="#ffd93d"/>
  <rect x="12" y="8" width="1" height="2" fill="#ffd93d"/>
  <!-- Star badge -->
  <rect x="7" y="10" width="2" height="2" fill="#ffd93d"/>
  <!-- Belt -->
  <rect x="4" y="12" width="8" height="1" fill="#1a1a2e"/>
  <!-- Legs -->
  <rect x="5" y="13" width="2" height="2" fill="#3bceac"/>
  <rect x="9" y="13" width="2" height="2" fill="#3bceac"/>
</svg>
